# AST/ASF file generated using VICON BodyLanguage
# -----------------------------------------------
:version 1.10
:name VICON
:units
  mass 1.0
  length 0.45
  angle deg
:documentation
   .ast/.asf automatically generated from VICON data using
   VICON BodyBuilder and BodyLanguage model FoxedUp or BRILLIANT.MOD
:root
   order TX TY TZ RX RY RZ
   axis XYZ
   position 0 0 0  
   orientation 0 0 0 
:bonedata
  begin
     id 1 
     name lhipjoint
     direction 0.567725 -0.736092 0.368589 
     length 2.42353 
     axis 0 0 0  XYZ
  end
  begin
     id 2 
     name lfemur
     direction 0.34202 -0.939693 0  
     length 7.24894  
     axis 0 0 20  XYZ
    dof rx ry rz
    limits (-160.0 20.0)
           (-70.0 70.0)
           (-60.0 70.0)
  end
  begin
     id 3 
     name ltibia
     direction 0.34202 -0.939693 0   
     length 7.6997   
     axis 0 0 20   XYZ
    dof rx
    limits (-10.0 170.0)
  end
  begin
     id 4 
     name lfoot
     direction 0.100767 -0.276854 0.955614   
     length 2.37556   
     axis -90 7.62852e-016 20   XYZ
    dof rx rz
    limits (-45.0 90.0)
           (-70.0 20.0)
  end
  begin
     id 5 
     name ltoes
     direction 1.53592e-011 -4.21894e-011 1   
     length 1.18363   
     axis -90 7.62852e-016 20   XYZ
    dof rx
    limits (-90.0 20.0)
  end
  begin
     id 6 
     name rhipjoint
     direction -0.556459 -0.742938 0.372017   
     length 2.4012  
     axis 0 0 0  XYZ 
  end
  begin
     id 7 
     name rfemur
     direction -0.34202 -0.939693 0   
     length 7.5119   
     axis 0 0 -20   XYZ
    dof rx ry rz
    limits (-160.0 20.0)
           (-70.0 70.0)
           (-70.0 60.0)
  end
  begin
     id 8 
     name rtibia
     direction -0.34202 -0.939693 0   
     length 7.50155   
     axis 0 0 -20   XYZ
    dof rx
    limits (-10.0 170.0)
 end
 begin
     id 9 
     name rfoot
     direction -0.118427 -0.325376 0.938139   
     length 2.32487  
     axis -90 -7.62852e-016 -20   XYZ
    dof rx rz
    limits (-45.0 90.0)
           (-20.0 70.0)
  end
  begin
     id 10 
     name rtoes
     direction -1.53525e-011 -4.21868e-011 1   
     length 1.15233   
     axis -90 -7.62852e-016 -20   XYZ
    dof rx
    limits (-90.0 20.0)
  end
  begin
     id 11 
     name lowerback
     direction 0.0287568 0.999577 -0.00434502   
     length 2.15243   
     axis 0 0 0   XYZ
    dof rx ry rz
    limits (-20.0 45.0)
           (-30.0 30.0)
           (-30.0 30.0)
  end
  begin
     id 12 
     name upperback
     direction 0.0294009 0.99956 0.00404628   
     length 2.15427   
     axis 0 0 0   XYZ
    dof rx ry rz
    limits (-20.0 45.0)
           (-30.0 30.0)
           (-30.0 30.0)
  end
  begin
     id 13 
     name thorax
     direction 0.0151014 0.999868 0.0059419   
     length 2.14898   
     axis 0 0 0   XYZ
    dof rx ry rz
    limits (-20.0 45.0)
           (-30.0 30.0)
           (-30.0 30.0)
  end
  begin
     id 14 
     name lowerneck
     direction -0.0249197 0.989906 0.139515   
     length 1.6861   
     axis 0 0 0   XYZ
    dof rx ry rz
    limits (-20.0 45.0)
           (-30.0 30.0)
           (-30.0 30.0)
  end
  begin
     id 15 
     name upperneck
     direction 0.0438463 0.988795 -0.142693   
     length 1.71276   
     axis 0 0 0   XYZ
    dof rx ry rz
    limits (-20.0 45.0)
           (-30.0 30.0)
           (-30.0 30.0)
  end
  begin
     id 16
     name head
     direction 0.0148499 0.997845 -0.0639186  
     length 1.7209  
     axis 0 0 0   XYZ
    dof rx ry rz
    limits (-20.0 45.0)
           (-30.0 30.0)
           (-30.0 30.0)
  end
  begin
     id 17 
     name lclavicle
     direction 0.940298 0.323464 -0.105876  
     length 3.9048  
     axis 0 0 0   XYZ
    dof ry rz
    limits (-20.0 10.0)
           (0.0 20.0)
  end
  begin
     id 18 
     name lhumerus
     direction 1 -4.48954e-011 -4.9675e-028   
     length 4.6851   
     axis 180 -30 -90   XYZ
    dof rx ry rz
    limits (-60.0 90.0)
           (-90.0 90.0)
           (-90.0 90.0)
  end
  begin
     id 19
     name lradius
     direction 1 -4.48992e-011 -1.03359e-026   
     length 3.39626   
     axis 180 -30 -90   XYZ
    dof rx
    limits (-10.0 170.0)
  end
  begin
     id 20
     name lwrist
     direction 1 -4.48906e-011 -1.67336e-026   
     length 1.69813   
     axis 9.90442e-015 90 90   XYZ
    dof ry
    limits (-180.0 0.0)
 end
  begin
     id 21 
     name lhand
     direction 1 -4.49006e-011 -3.34673e-026   
     length 0.486078   
     axis 2.1355e-014 90 90   XYZ
    dof rx rz
    limits (-90.0 90.0)
           (-45.0 45.0)
  end
  begin
     id 22 
     name lfingers
     direction 1 -4.48992e-011 -6.69345e-026   
     length 0.391889   
     axis 4.27099e-014 90 90   XYZ
    dof rx
    limits (0.0 90.0)
  end
  begin
     id 23
     name lthumb
     direction 0.707107 -6.34926e-011 0.707107   
     length 0.562676   
     axis -90 45 2.85299e-015   XYZ
    dof rx rz
    limits (-45.0 45.0)
           (-45.0 45.0)
  end
  begin
     id 24 
     name rclavicle
     direction -0.882459 0.414895 -0.221648   
     length 3.44646  
     axis 0 0 0   XYZ 
    dof ry rz
    limits (-10.0 20.0)
           (-20.0 0.0)
  end
  begin
     id 25 
     name rhumerus
     direction -1 -4.48962e-011 -2.37984e-027  
     length 5.55576   
     axis 180 30 90   XYZ
    dof rx ry rz
    limits (-90.0 60.0)
           (-90.0 90.0)
           (-90.0 90.0)
  end
  begin
     id 26 
     name rradius
     direction -1 -4.48982e-011 -6.86791e-027   
     length 3.32774   
     axis 180 30 90   XYZ
    dof rx
    limits (-10.0 170.0)
  end
  begin
     id 27 
     name rwrist
     direction -1 -4.48961e-011 -1.67336e-026   
     length 1.66387   
     axis 9.90442e-015 -90 -90   XYZ
    dof ry
    limits (-180.0 0.0)
  end
  begin
     id 28
     name rhand
     direction -1 -4.4897e-011 -3.34673e-026   
     length 0.507628   
     axis 2.1355e-014 -90 -90   XYZ
    dof rx rz
    limits (-90.0 90.0)
           (-45.0 45.0)
  end
  begin
     id 29
     name rfingers
     direction -1 -4.48854e-011 -6.69345e-026   
     length 0.409263   
     axis 4.27099e-014 -90 -90   XYZ
    dof rx
    limits (0.0 90.0)
  end
  begin
     id 30
     name rthumb
     direction -0.707107 -6.34913e-011 0.707107   
     length 0.587622   
     axis -90 -45 -2.85299e-015   XYZ
    dof rx rz
    limits (-45.0 45.0)
           (-45.0 45.0)
  end
:hierarchy
  begin
    root lhipjoint rhipjoint lowerback
    lhipjoint lfemur
    lfemur ltibia
    ltibia lfoot
    lfoot ltoes
    rhipjoint rfemur
    rfemur rtibia
    rtibia rfoot
    rfoot rtoes
    lowerback upperback
    upperback thorax
    thorax lowerneck lclavicle rclavicle
    lowerneck upperneck
    upperneck head
    lclavicle lhumerus
    lhumerus lradius
    lradius lwrist
    lwrist lhand lthumb
    lhand lfingers
    rclavicle rhumerus
    rhumerus rradius
    rradius rwrist
    rwrist rhand rthumb
    rhand rfingers
  end

#!OML:ASF E:\motion texture\Top Level 1\Subject 1\Session 1\male.ASF
:FULLY-SPECIFIED
:DEGREES
1
root 43.2854 17.9557 6.25931 123.128 -83.6073 -116.007
lowerback -3.16355 0.682671 0.795244
upperback -2.77541 0.805502 4.20749
thorax -1.12817 0.381933 3.90493
lowerneck -15.4444 -5.03433 -6.50404
upperneck 14.1524 -6.39732 5.65299
head 7.27365 -2.93314 2.20144
rclavicle 5.36563e-016 -1.47101e-014
rhumerus -31.0871 -9.86414 -74.9413
rradius 22.8276
rwrist 13.2323
rhand -12.0702 -23.1772
rfingers 7.12502
rthumb 13.9893 -52.6865
lclavicle 5.36563e-016 -1.47101e-014
lhumerus -32.6889 19.371 80.7344
lradius 22.4531
lwrist -34.3417
lhand -13.7058 18.4897
lfingers 7.12502
lthumb 12.4128 48.1011
rfemur -8.8234 2.63236 27.2003
rtibia 15.3599
rfoot -9.43952 -9.35883
rtoes 14.4965
lfemur -4.33073 -4.64144 -12.1679
ltibia 9.4374
lfoot -9.50924 4.26519
ltoes 0.245819
2
root 43.2808 17.9539 6.25167 122.475 -83.6301 -115.339
lowerback -2.97177 0.57309 1.24435
upperback -2.88329 0.663966 3.91424
thorax -1.32766 0.30384 3.34152
lowerneck -15.3526 -4.88598 -6.34958
upperneck 14.3368 -6.27579 5.79508
head 7.30996 -2.85701 2.23847
rclavicle -1.084e-015 -3.02153e-014
rhumerus -31.2814 -9.93288 -75.4176
rradius 22.8074
rwrist 13.4307
rhand -12.121 -22.8617
rfingers 7.12502
rthumb 13.9404 -52.3743
lclavicle -1.084e-015 -3.02153e-014
lhumerus -32.9936 19.2581 80.1691
lradius 22.4815
lwrist -34.2537
lhand -13.6451 18.4577
lfingers 7.12502
lthumb 12.4713 48.0656
rfemur -8.83339 2.61834 27.2483
rtibia 15.4066
rfoot -9.49012 -9.39813
rtoes 14.465
lfemur -4.35754 -4.69068 -12.121
ltibia 9.47924
lfoot -9.53178 4.15645
ltoes 0.455623
3
root 43.2753 17.9521 6.24436 122.443 -83.7013 -115.293
lowerback -2.756 0.471248 1.59864
upperback -3.01312 0.537403 3.61632
thorax -1.56876 0.23351 2.82958
lowerneck -15.2431 -4.75593 -6.21895
upperneck 14.5412 -6.17585 5.93208
head 7.3517 -2.79325 2.27543
rclavicle 3.89804e-015 1.90833e-014
rhumerus -31.5252 -9.97507 -75.8558
rradius 22.7977
rwrist 13.6353
rhand -12.2041 -22.6679
rfingers 7.12502
rthumb 13.8603 -52.186
lclavicle 3.89804e-015 1.90833e-014
lhumerus -33.3489 19.0456 79.7032
lradius 22.5629
lwrist -34.0062
lhand -13.5268 18.5671
lfingers 7.12502
lthumb 12.5853 48.168
rfemur -8.82187 2.53604 27.1938
rtibia 15.4021
rfoot -9.54896 -9.34098
rtoes 14.5052
lfemur -4.37007 -4.73817 -12.1861
ltibia 9.50818
lfoot -9.54252 4.2667
ltoes 0.478329
4
root 43.2725 17.9507 6.23589 121.833 -83.6715 -114.668
lowerback -2.56536 0.391957 2.053
upperback -3.10843 0.437528 3.34904
thorax -1.76383 0.172866 2.29588
lowerneck -15.0957 -4.61994 -6.08393
upperneck 14.649 -6.07394 6.11583
head 7.35661 -2.72508 2.32801
rclavicle -1.60581e-015 3.02153e-014
rhumerus -31.688 -10.1339 -76.2625
rradius 22.7636
rwrist 13.8965
rhand -12.1252 -22.603
rfingers 7.12502
rthumb 13.9363 -52.1159
lclavicle -1.60581e-015 3.02153e-014
lhumerus -33.6205 18.7551 79.298
lradius 22.6215
lwrist -33.7869
lhand -13.4316 18.8168
lfingers 7.12502
lthumb 12.6771 48.412
rfemur -8.83187 2.56447 27.2968
rtibia 15.4312
rfoot -9.58338 -9.38045
rtoes 14.452
lfemur -4.39492 -4.70473 -12.071
ltibia 9.52099
lfoot -9.55842 4.22157
ltoes 0.298778
5
root 43.2679 17.9485 6.2262 121.791 -83.6278 -114.584
lowerback -2.50264 0.346307 2.46721
upperback -3.15374 0.376958 3.08107
thorax -1.83939 0.132189 1.78643
lowerneck -15.0873 -4.47698 -5.93068
upperneck 14.8737 -5.95485 6.24169
head 7.42014 -2.64925 2.35828
rclavicle -2.86219e-015 5.78463e-014
rhumerus -31.7893 -10.277 -76.6912
rradius 22.7857
rwrist 13.9725
rhand -12.0926 -22.8574
rfingers 7.12502
rthumb 13.9678 -52.3682
lclavicle -2.86219e-015 5.78463e-014
lhumerus -33.7766 18.5542 78.8876
lradius 22.6165
lwrist -33.691
lhand -13.3921 18.5736
lfingers 7.12502
lthumb 12.7152 48.1665
rfemur -8.87672 2.63996 27.3892
rtibia 15.4628
rfoot -9.60335 -9.41785
rtoes 14.4656
lfemur -4.43557 -4.69733 -11.9741
ltibia 9.56532
lfoot -9.63121 4.22954
ltoes 0.159781
6
root 43.2641 17.9475 6.21741 121.938 -83.6097 -114.705
lowerback -2.19821 0.269103 3.2395
upperback -3.33954 0.288007 2.50885
thorax -2.19446 0.0629698 0.764572
lowerneck -14.563 -4.13175 -5.87258
upperneck 14.8105 -5.69474 7.118
head 7.31696 -2.46081 2.67429
rclavicle -8.55706e-016 3.44891e-014
rhumerus -32.1693 -10.6886 -77.4515
rradius 22.7807
rwrist 14.2565
rhand -12.2176 -22.7272
rfingers 7.12502
rthumb 13.8473 -52.2463
lclavicle -8.55706e-016 3.44891e-014
lhumerus -34.1464 17.8925 78.0814
lradius 22.71
lwrist -33.2835
lhand -13.2685 18.6581
lfingers 7.12502
lthumb 12.8343 48.2435
rfemur -8.90721 2.6554 27.4257
rtibia 15.5023
rfoot -9.68217 -9.37474
rtoes 14.6507
lfemur -4.45517 -4.66751 -11.9311
ltibia 9.57243
lfoot -9.64006 4.23455
ltoes -0.0178059
7
root 43.2592 17.9452 6.20835 121.884 -83.6341 -114.624
lowerback -1.96643 0.213806 3.12193
upperback -3.47922 0.229993 2.60361
thorax -2.47029 0.0329083 0.928083
lowerneck -14.5976 -4.23178 -5.82566
upperneck 14.9576 -5.75303 6.61133
head 7.35751 -2.52778 2.4932
rclavicle 4.32823e-015 -2.18663e-014
rhumerus -32.3517 -10.3204 -77.3921
rradius 22.8024
rwrist 14.1111
rhand -12.2432 -22.911
rfingers 7.12502
rthumb 13.8227 -52.4318
lclavicle 4.32823e-015 -2.18663e-014
lhumerus -34.5197 18.1357 78.0811
lradius 22.6826
lwrist -33.4515
lhand -13.1974 18.6063
lfingers 7.12502
lthumb 12.9029 48.1874
rfemur -8.93789 2.68378 27.442
rtibia 15.5553
rfoot -9.71699 -9.40549
rtoes 14.6045
lfemur -4.48038 -4.71539 -11.9205
ltibia 9.6088
lfoot -9.6556 4.28891
ltoes 0.138135
8
root 43.2542 17.9443 6.199 121.775 -83.6306 -114.48
lowerback -1.8648 0.193241 3.0726
upperback -3.53962 0.209236 2.65903
thorax -2.59039 0.0222779 1.01309
lowerneck -14.4717 -4.02224 -6.08259
upperneck 15.1691 -5.48412 6.88527
head 7.40169 -2.39274 2.65846
rclavicle 3.25199e-015 -3.22031e-014
rhumerus -32.4747 -10.1553 -77.3367
rradius 22.9009
rwrist 14.059
rhand -12.2175 -22.9091
rfingers 7.12502
rthumb 13.8474 -52.4282
lclavicle 3.25199e-015 -3.22031e-014
lhumerus -34.7298 18.2658 78.1228
lradius 22.6345
lwrist -33.5537
lhand -13.144 19.0535
lfingers 7.12502
lthumb 12.9543 48.6313
rfemur -8.96608 2.6936 27.4902
rtibia 15.5854
rfoot -9.73585 -9.38668
rtoes 14.6234
lfemur -4.49731 -4.75965 -11.8596
ltibia 9.6274
lfoot -9.74693 4.25633
ltoes 0.398878
9
root 43.2481 17.9424 6.19117 121.694 -83.6543 -114.363
lowerback -2.38709 0.119244 3.05648
upperback -3.19899 0.0762353 2.69304
thorax -1.94586 -0.0336707 1.05482
lowerneck -14.538 -4.02714 -6.06255
upperneck 14.924 -5.43177 6.68241
head 7.32327 -2.38199 2.59289
rclavicle -3.61074e-016 -1.88845e-014
rhumerus -31.9259 -10.0917 -77.4458
rradius 22.8549
rwrist 14.0948
rhand -12.1657 -22.9283
rfingers 7.12502
rthumb 13.8973 -52.444
lclavicle -3.61074e-016 -1.88845e-014
lhumerus -34.358 18.8796 78.0958
lradius 22.4226
lwrist -33.9403
lhand -13.2129 18.5944
lfingers 7.12502
lthumb 12.8879 48.1764
rfemur -8.97226 2.63751 27.4949
rtibia 15.5656
rfoot -9.78566 -9.34324
rtoes 14.6248
lfemur -4.53633 -4.77866 -11.8612
ltibia 9.65566
lfoot -9.772 4.19753
ltoes 0.261436
10
root 43.2399 17.9405 6.1825 121.916 -83.666 -114.549
lowerback -3.72407 0.0523835 3.2394
upperback -2.32431 -0.105413 2.56365
thorax -0.298808 -0.10141 0.811029
lowerneck -14.6737 -4.01046 -6.01277
upperneck 14.2227 -5.36799 6.73279
head 7.11507 -2.34136 2.60524
rclavicle 1.48001e-015 4.37326e-015
rhumerus -30.5575 -10.3798 -77.9119
rradius 22.6997
rwrist 14.2104
rhand -12.133 -23.1208
rfingers 7.12502
rthumb 13.9289 -52.6343
lclavicle 1.48001e-015 4.37326e-015
lhumerus -33.1019 19.3288 78.2479
lradius 22.2496
lwrist -34.1163
lhand -13.0837 18.9131
lfingers 7.12502
lthumb 13.0125 48.4872
rfemur -8.98076 2.57837 27.4965
rtibia 15.5589
rfoot -9.78887 -9.24519
rtoes 14.7305
lfemur -4.53308 -4.79178 -11.8641
ltibia 9.61779
lfoot -9.73682 4.36603
ltoes -0.0648723
11
root 43.2326 17.9383 6.17291 121.967 -83.6826 -114.563
lowerback -3.97604 -0.00499157 3.2473
upperback -2.16471 -0.199559 2.5662
thorax 0.00502694 -0.143585 0.804952
lowerneck -14.6575 -3.9152 -6.11415
upperneck 14.1604 -5.21474 6.7552
head 7.08495 -2.27153 2.64642
rclavicle 4.55962e-015 3.8763e-015
rhumerus -30.2789 -10.2987 -77.987
rradius 22.6254
rwrist 14.2818
rhand -12.1895 -22.8229
rfingers 7.12502
rthumb 13.8743 -52.3401
lclavicle 4.55962e-015 3.8763e-015
lhumerus -32.9441 19.6448 78.2668
lradius 22.0935
lwrist -34.2771
lhand -13.1644 18.7471
lfingers 7.12502
lthumb 12.9348 48.3262
rfemur -8.99337 2.54305 27.5096
rtibia 15.5633
rfoot -9.83123 -9.18328
rtoes 14.7652
lfemur -4.55002 -4.77359 -11.8432
ltibia 9.61634
lfoot -9.74328 4.34106
ltoes -0.238222
